{
    "asset" : {
        "generator" : "Khronos glTF Blender I/O v1.5.17",
        "version" : "2.0"
    },
    "scene" : 0,
    "scenes" : [
        {
            "extras" : {
                "glTF2ExportSettings" : {
                    "export_apply" : 1,
                    "export_extras" : 1,
                    "export_format" : "GLTF_EMBEDDED",
                    "use_selection" : 1
                }
            },
            "name" : "Scene",
            "nodes" : [
                0
            ]
        }
    ],
    "nodes" : [
        {
            "mesh" : 0,
            "name" : "handgun",
            "scale" : [
                0.05000000074505806,
                0.05000000074505806,
                0.10000000149011612
            ]
        }
    ],
    "meshes" : [
        {
            "name" : "Cube",
            "primitives" : [
                {
                    "attributes" : {
                        "POSITION" : 0,
                        "NORMAL" : 1,
                        "TEXCOORD_0" : 2
                    },
                    "indices" : 3
                }
            ]
        }
    ],
    "accessors" : [
        {
            "bufferView" : 0,
            "componentType" : 5126,
            "count" : 142,
            "max" : [
                1,
                1,
                1
            ],
            "min" : [
                -1,
                -3.6891512870788574,
                -1
            ],
            "type" : "VEC3"
        },
        {
            "bufferView" : 1,
            "componentType" : 5126,
            "count" : 142,
            "type" : "VEC3"
        },
        {
            "bufferView" : 2,
            "componentType" : 5126,
            "count" : 142,
            "type" : "VEC2"
        },
        {
            "bufferView" : 3,
            "componentType" : 5123,
            "count" : 408,
            "type" : "SCALAR"
        }
    ],
    "bufferViews" : [
        {
            "buffer" : 0,
            "byteLength" : 1704,
            "byteOffset" : 0
        },
        {
            "buffer" : 0,
            "byteLength" : 1704,
            "byteOffset" : 1704
        },
        {
            "buffer" : 0,
            "byteLength" : 1136,
            "byteOffset" : 3408
        },
        {
            "buffer" : 0,
            "byteLength" : 816,
            "byteOffset" : 4544
        }
    ],
    "buffers" : [
        {
            "byteLength" : 5360,
            "uri" : "data:application/octet-stream;base64,"
        }
    ]
}
