{
    "asset" : {
        "generator" : "Khronos glTF Blender I/O v1.5.17",
        "version" : "2.0"
    },
    "scene" : 0,
    "scenes" : [
        {
            "name" : "Scene",
            "nodes" : [
                0
            ]
        }
    ],
    "nodes" : [
        {
            "mesh" : 0,
            "name" : "Shotgun",
            "scale" : [
                0.029999997466802597,
                0.01499995868653059,
                0.09360002726316452
            ]
        }
    ],
    "materials" : [
        {
            "doubleSided" : true,
            "name" : "material_rust",
            "pbrMetallicRoughness" : {
                "metallicFactor" : 0
            }
        },
        {
            "doubleSided" : true,
            "name" : "material_wood",
            "pbrMetallicRoughness" : {
                "metallicFactor" : 0
            }
        }
    ],
    "meshes" : [
        {
            "name" : "Shotgun",
            "primitives" : [
                {
                    "attributes" : {
                        "POSITION" : 0,
                        "NORMAL" : 1,
                        "TEXCOORD_0" : 2
                    },
                    "indices" : 3,
                    "material" : 0
                },
                {
                    "attributes" : {
                        "POSITION" : 4,
                        "NORMAL" : 5,
                        "TEXCOORD_0" : 6
                    },
                    "indices" : 7,
                    "material" : 1
                }
            ]
        }
    ],
    "accessors" : [
        {
            "bufferView" : 0,
            "componentType" : 5126,
            "count" : 3753,
            "max" : [
                2.1594324111938477,
                2.783491849899292,
                1.479495644569397
            ],
            "min" : [
                -2.1405673027038574,
                -3.2280843257904053,
                -5.574378967285156
            ],
            "type" : "VEC3"
        },
        {
            "bufferView" : 1,
            "componentType" : 5126,
            "count" : 3753,
            "type" : "VEC3"
        },
        {
            "bufferView" : 2,
            "componentType" : 5126,
            "count" : 3753,
            "type" : "VEC2"
        },
        {
            "bufferView" : 3,
            "componentType" : 5123,
            "count" : 15720,
            "type" : "SCALAR"
        },
        {
            "bufferView" : 4,
            "componentType" : 5126,
            "count" : 4518,
            "max" : [
                2.202087879180908,
                2.992292642593384,
                3.3067727088928223
            ],
            "min" : [
                -2.217912197113037,
                -4.311127185821533,
                -0.31840649247169495
            ],
            "type" : "VEC3"
        },
        {
            "bufferView" : 5,
            "componentType" : 5126,
            "count" : 4518,
            "type" : "VEC3"
        },
        {
            "bufferView" : 6,
            "componentType" : 5126,
            "count" : 4518,
            "type" : "VEC2"
        },
        {
            "bufferView" : 7,
            "componentType" : 5123,
            "count" : 17748,
            "type" : "SCALAR"
        }
    ],
    "bufferViews" : [
        {
            "buffer" : 0,
            "byteLength" : 45036,
            "byteOffset" : 0
        },
        {
            "buffer" : 0,
            "byteLength" : 45036,
            "byteOffset" : 45036
        },
        {
            "buffer" : 0,
            "byteLength" : 30024,
            "byteOffset" : 90072
        },
        {
            "buffer" : 0,
            "byteLength" : 31440,
            "byteOffset" : 120096
        },
        {
            "buffer" : 0,
            "byteLength" : 54216,
            "byteOffset" : 151536
        },
        {
            "buffer" : 0,
            "byteLength" : 54216,
            "byteOffset" : 205752
        },
        {
            "buffer" : 0,
            "byteLength" : 36144,
            "byteOffset" : 259968
        },
        {
            "buffer" : 0,
            "byteLength" : 35496,
            "byteOffset" : 296112
        }
    ],
    "buffers" : [
        {
            "byteLength" : 331608,
            "uri" : "data:application/octet-stream;base64,"
        }
    ]
}
