{
    "asset" : {
        "generator" : "Khronos glTF Blender I/O v1.5.17",
        "version" : "2.0"
    },
    "scene" : 0,
    "scenes" : [
        {
            "extras" : {
                "glTF2ExportSettings" : {
                    "export_apply" : 1,
                    "export_copyright" : "",
                    "export_extras" : 1,
                    "export_format" : "GLTF_EMBEDDED"
                }
            },
            "name" : "Scene",
            "nodes" : [
                7,
                8,
                9
            ]
        }
    ],
    "nodes" : [
        {
            "name" : "head",
            "translation" : [
                0,
                1.048956274986267,
                0
            ]
        },
        {
            "name" : "arm_left",
            "rotation" : [
                1,
                0,
                -4.371138828673793e-08,
                0
            ],
            "translation" : [
                1.6580898641398688e-15,
                1.0522538423538208,
                -0.5155249238014221
            ]
        },
        {
            "name" : "arm_right",
            "rotation" : [
                1,
                0,
                -4.371138828673793e-08,
                0
            ],
            "translation" : [
                8.348521957465742e-19,
                1.0560137033462524,
                0.5071514844894409
            ]
        },
        {
            "name" : "leg_left",
            "rotation" : [
                1,
                0,
                -4.371138828673793e-08,
                0
            ],
            "translation" : [
                7.375697208544807e-08,
                -0.20341190695762634,
                -0.1733795404434204
            ]
        },
        {
            "name" : "leg_right",
            "rotation" : [
                1,
                0,
                -4.371138828673793e-08,
                0
            ],
            "translation" : [
                -7.375696498002071e-08,
                -0.20341190695762634,
                0.17040255665779114
            ]
        },
        {
            "children" : [
                0,
                1,
                2,
                3,
                4
            ],
            "name" : "Skeleton",
            "translation" : [
                0,
                -0.0435166209936142,
                0
            ]
        },
        {
            "mesh" : 0,
            "name" : "body",
            "skin" : 0
        },
        {
            "children" : [
                6,
                5
            ],
            "name" : "blockhead_character",
            "rotation" : [
                0,
                -0.7071068286895752,
                0,
                0.7071068286895752
            ],
            "scale" : [
                0.5842133164405823,
                0.5842133164405823,
                0.5842133164405823
            ],
            "translation" : [
                0,
                0.8299999833106995,
                0
            ]
        },
        {
            "mesh" : 1,
            "name" : "Looking Direction",
            "rotation" : [
                0,
                -0.7071068286895752,
                0,
                0.7071068286895752
            ],
            "scale" : [
                0.5833089351654053,
                0.10000000149011612,
                0.10000000149011612
            ],
            "translation" : [
                -0.01458805799484253,
                1.7573672533035278,
                0.5713330507278442
            ]
        },
        {
            "mesh" : 2,
            "name" : "reference cube",
            "scale" : [
                1,
                2,
                1
            ],
            "translation" : [
                0,
                1,
                0
            ]
        }
    ],
    "materials" : [
        {
            "doubleSided" : true,
            "name" : "Material",
            "pbrMetallicRoughness" : {
                "baseColorFactor" : [
                    0.7356592416763306,
                    0.33738797903060913,
                    0.14749044179916382,
                    1
                ],
                "metallicFactor" : 0,
                "roughnessFactor" : 0.5
            }
        }
    ],
    "meshes" : [
        {
            "name" : "Cube_008",
            "primitives" : [
                {
                    "attributes" : {
                        "POSITION" : 0,
                        "NORMAL" : 1,
                        "TEXCOORD_0" : 2,
                        "JOINTS_0" : 3,
                        "WEIGHTS_0" : 4
                    },
                    "indices" : 5,
                    "material" : 0
                }
            ]
        },
        {
            "name" : "Cube_016",
            "primitives" : [
                {
                    "attributes" : {
                        "POSITION" : 7,
                        "NORMAL" : 8
                    },
                    "indices" : 9
                }
            ]
        },
        {
            "name" : "Cube_11",
            "primitives" : [
                {
                    "attributes" : {
                        "POSITION" : 10,
                        "NORMAL" : 11
                    },
                    "indices" : 9
                }
            ]
        }
    ],
    "skins" : [
        {
            "inverseBindMatrices" : 6,
            "joints" : [
                5,
                0,
                1,
                2,
                3,
                4
            ],
            "name" : "blockhead_character"
        }
    ],
    "accessors" : [
        {
            "bufferView" : 0,
            "componentType" : 5126,
            "count" : 288,
            "max" : [
                0.3749999701976776,
                1.9499998092651367,
                0.19999998807907104
            ],
            "min" : [
                -0.3749999701976776,
                2.0861619987044833e-08,
                -0.19999998807907104
            ],
            "type" : "VEC3"
        },
        {
            "bufferView" : 1,
            "componentType" : 5126,
            "count" : 288,
            "type" : "VEC3"
        },
        {
            "bufferView" : 2,
            "componentType" : 5126,
            "count" : 288,
            "type" : "VEC2"
        },
        {
            "bufferView" : 3,
            "componentType" : 5121,
            "count" : 288,
            "type" : "VEC4"
        },
        {
            "bufferView" : 4,
            "componentType" : 5126,
            "count" : 288,
            "type" : "VEC4"
        },
        {
            "bufferView" : 5,
            "componentType" : 5123,
            "count" : 432,
            "type" : "SCALAR"
        },
        {
            "bufferView" : 6,
            "componentType" : 5126,
            "count" : 6,
            "type" : "MAT4"
        },
        {
            "bufferView" : 7,
            "componentType" : 5126,
            "count" : 24,
            "max" : [
                0.5,
                0.5,
                0.5
            ],
            "min" : [
                -0.5,
                -0.5,
                -0.5
            ],
            "type" : "VEC3"
        },
        {
            "bufferView" : 8,
            "componentType" : 5126,
            "count" : 24,
            "type" : "VEC3"
        },
        {
            "bufferView" : 9,
            "componentType" : 5123,
            "count" : 36,
            "type" : "SCALAR"
        },
        {
            "bufferView" : 10,
            "componentType" : 5126,
            "count" : 24,
            "max" : [
                0.5,
                0.5,
                0.5
            ],
            "min" : [
                -0.5,
                -0.5,
                -0.5
            ],
            "type" : "VEC3"
        },
        {
            "bufferView" : 11,
            "componentType" : 5126,
            "count" : 24,
            "type" : "VEC3"
        }
    ],
    "bufferViews" : [
        {
            "buffer" : 0,
            "byteLength" : 3456,
            "byteOffset" : 0
        },
        {
            "buffer" : 0,
            "byteLength" : 3456,
            "byteOffset" : 3456
        },
        {
            "buffer" : 0,
            "byteLength" : 2304,
            "byteOffset" : 6912
        },
        {
            "buffer" : 0,
            "byteLength" : 1152,
            "byteOffset" : 9216
        },
        {
            "buffer" : 0,
            "byteLength" : 4608,
            "byteOffset" : 10368
        },
        {
            "buffer" : 0,
            "byteLength" : 864,
            "byteOffset" : 14976
        },
        {
            "buffer" : 0,
            "byteLength" : 384,
            "byteOffset" : 15840
        },
        {
            "buffer" : 0,
            "byteLength" : 288,
            "byteOffset" : 16224
        },
        {
            "buffer" : 0,
            "byteLength" : 288,
            "byteOffset" : 16512
        },
        {
            "buffer" : 0,
            "byteLength" : 72,
            "byteOffset" : 16800
        },
        {
            "buffer" : 0,
            "byteLength" : 288,
            "byteOffset" : 16872
        },
        {
            "buffer" : 0,
            "byteLength" : 288,
            "byteOffset" : 17160
        }
    ],
    "buffers" : [
        {
            "byteLength" : 17448,
            "uri" : "data:application/octet-stream;base64,"
        }
    ]
}
