{
    "asset" : {
        "generator" : "Khronos glTF Blender I/O v1.5.17",
        "version" : "2.0"
    },
    "scene" : 0,
    "scenes" : [
        {
            "extras" : {
                "glTF2ExportSettings" : {
                    "export_apply" : 1,
                    "export_copyright" : "",
                    "export_extras" : 1,
                    "export_format" : "GLTF_EMBEDDED",
                    "use_selection" : 0
                }
            },
            "name" : "Scene",
            "nodes" : [
                0
            ]
        }
    ],
    "nodes" : [
        {
            "mesh" : 0,
            "name" : "Rifle",
            "scale" : [
                0.15000000596046448,
                0.15000000596046448,
                0.6000000238418579
            ]
        }
    ],
    "materials" : [
        {
            "doubleSided" : true,
            "name" : "Mat_Rifle",
            "pbrMetallicRoughness" : {
                "baseColorFactor" : [
                    0.08001182228326797,
                    0.0027647085953503847,
                    0.00817820243537426,
                    1
                ],
                "metallicFactor" : 0
            }
        }
    ],
    "meshes" : [
        {
            "name" : "Rifle_01",
            "primitives" : [
                {
                    "attributes" : {
                        "POSITION" : 0,
                        "NORMAL" : 1,
                        "TEXCOORD_0" : 2
                    },
                    "indices" : 3,
                    "material" : 0
                }
            ]
        }
    ],
    "accessors" : [
        {
            "bufferView" : 0,
            "componentType" : 5126,
            "count" : 2479,
            "max" : [
                1,
                1.2000000476837158,
                1.3583749532699585
            ],
            "min" : [
                -1.4138933420181274,
                -4.072562217712402,
                -1.6434886455535889
            ],
            "type" : "VEC3"
        },
        {
            "bufferView" : 1,
            "componentType" : 5126,
            "count" : 2479,
            "type" : "VEC3"
        },
        {
            "bufferView" : 2,
            "componentType" : 5126,
            "count" : 2479,
            "type" : "VEC2"
        },
        {
            "bufferView" : 3,
            "componentType" : 5123,
            "count" : 10602,
            "type" : "SCALAR"
        }
    ],
    "bufferViews" : [
        {
            "buffer" : 0,
            "byteLength" : 29748,
            "byteOffset" : 0
        },
        {
            "buffer" : 0,
            "byteLength" : 29748,
            "byteOffset" : 29748
        },
        {
            "buffer" : 0,
            "byteLength" : 19832,
            "byteOffset" : 59496
        },
        {
            "buffer" : 0,
            "byteLength" : 21204,
            "byteOffset" : 79328
        }
    ],
    "buffers" : [
        {
            "byteLength" : 100532,
            "uri" : "data:application/octet-stream;base64,"
        }
    ]
}
