{
    "asset" : {
        "generator" : "Khronos glTF Blender I/O v1.5.17",
        "version" : "2.0"
    },
    "scene" : 0,
    "scenes" : [
        {
            "extras" : {
                "glTF2ExportSettings" : {
                    "export_apply" : 1,
                    "export_extras" : 1,
                    "export_format" : "GLTF_EMBEDDED",
                    "use_selection" : 0
                }
            },
            "name" : "Scene",
            "nodes" : [
                0,
                1
            ]
        }
    ],
    "nodes" : [
        {
            "mesh" : 0,
            "name" : "Theater-col",
            "scale" : [
                50,
                0.10000000149011612,
                50
            ],
            "translation" : [
                50,
                -0.10000000149011612,
                -50
            ]
        },
        {
            "mesh" : 1,
            "name" : "reference_cube",
            "scale" : [
                0.5,
                1,
                0.5
            ],
            "translation" : [
                -1.9292163848876953,
                1,
                -48.3200798034668
            ]
        }
    ],
    "materials" : [
        {
            "doubleSided" : true,
            "name" : "Theater",
            "pbrMetallicRoughness" : {
                "baseColorTexture" : {
                    "index" : 0
                },
                "metallicFactor" : 0,
                "roughnessFactor" : 0.5
            }
        }
    ],
    "meshes" : [
        {
            "name" : "Theater",
            "primitives" : [
                {
                    "attributes" : {
                        "POSITION" : 0,
                        "NORMAL" : 1,
                        "TEXCOORD_0" : 2
                    },
                    "indices" : 3,
                    "material" : 0
                }
            ]
        },
        {
            "name" : "reference_cube",
            "primitives" : [
                {
                    "attributes" : {
                        "POSITION" : 4,
                        "NORMAL" : 5,
                        "TEXCOORD_0" : 6
                    },
                    "indices" : 7
                }
            ]
        }
    ],
    "textures" : [
        {
            "sampler" : 0,
            "source" : 0
        }
    ],
    "images" : [
        {
            "bufferView" : 4,
            "mimeType" : "image/png",
            "name" : "Theater"
        }
    ],
    "accessors" : [
        {
            "bufferView" : 0,
            "componentType" : 5126,
            "count" : 1844,
            "max" : [
                1,
                40,
                1
            ],
            "min" : [
                -1,
                -1,
                -1
            ],
            "type" : "VEC3"
        },
        {
            "bufferView" : 1,
            "componentType" : 5126,
            "count" : 1844,
            "type" : "VEC3"
        },
        {
            "bufferView" : 2,
            "componentType" : 5126,
            "count" : 1844,
            "type" : "VEC2"
        },
        {
            "bufferView" : 3,
            "componentType" : 5123,
            "count" : 3456,
            "type" : "SCALAR"
        },
        {
            "bufferView" : 5,
            "componentType" : 5126,
            "count" : 24,
            "max" : [
                1,
                1,
                1
            ],
            "min" : [
                -1,
                -1,
                -1
            ],
            "type" : "VEC3"
        },
        {
            "bufferView" : 6,
            "componentType" : 5126,
            "count" : 24,
            "type" : "VEC3"
        },
        {
            "bufferView" : 7,
            "componentType" : 5126,
            "count" : 24,
            "type" : "VEC2"
        },
        {
            "bufferView" : 8,
            "componentType" : 5123,
            "count" : 36,
            "type" : "SCALAR"
        }
    ],
    "bufferViews" : [
        {
            "buffer" : 0,
            "byteLength" : 22128,
            "byteOffset" : 0
        },
        {
            "buffer" : 0,
            "byteLength" : 22128,
            "byteOffset" : 22128
        },
        {
            "buffer" : 0,
            "byteLength" : 14752,
            "byteOffset" : 44256
        },
        {
            "buffer" : 0,
            "byteLength" : 6912,
            "byteOffset" : 59008
        },
        {
            "buffer" : 0,
            "byteLength" : 43495,
            "byteOffset" : 65920
        },
        {
            "buffer" : 0,
            "byteLength" : 288,
            "byteOffset" : 109416
        },
        {
            "buffer" : 0,
            "byteLength" : 288,
            "byteOffset" : 109704
        },
        {
            "buffer" : 0,
            "byteLength" : 192,
            "byteOffset" : 109992
        },
        {
            "buffer" : 0,
            "byteLength" : 72,
            "byteOffset" : 110184
        }
    ],
    "samplers" : [
        {
            "magFilter" : 9729,
            "minFilter" : 9987
        }
    ],
    "buffers" : [
        {
            "byteLength" : 110256,
            "uri" : "data:application/octet-stream;base64,"
        }
    ]
}
